<?xml version="1.0" encoding="UTF-8"?>
<svg width="1100px" height="796px" viewBox="0 0 1100 796" version="1.1" xmlns="http://www.w3.org/2000/svg" xmlns:xlink="http://www.w3.org/1999/xlink">
    <!-- Generator: Sketch 52.2 (67145) - http://www.bohemiancoding.com/sketch -->
    <title>top</title>
    <desc>Created with Sketch.</desc>
    <defs>
        <linearGradient x1="50%" y1="0%" x2="50%" y2="100%" id="linearGradient-1">
            <stop stop-color="#FAD961" offset="0%"></stop>
            <stop stop-color="#F76B1C" offset="100%"></stop>
        </linearGradient>
    </defs>
    <g id="top" stroke="none" stroke-width="1" fill="none" fill-rule="evenodd">
        <path d="M1048.06933,159.914465 C1035.81036,92.4212078 957.22027,66.5430856 923.002604,63.8577874 C883.887748,60.7881727 842.601285,69.5212209 813.313645,83.0547212 C770.088876,103.028417 740.037464,133.335355 646.172023,136.53134 C548.90982,146.341703 342.277114,56.7953732 276.865748,48.729089 C246.006514,44.923644 231.041145,38.1520814 190.109334,38.1520814 C146.120395,38.1520814 108.899748,48.7039446 87.9310548,78.8051072 C55.7615357,124.985378 72.2843138,180.121257 83.9275815,202.548905 C95.2666361,224.390567 121.74435,249.347569 121.74435,287.527061 C121.74435,321.049304 112.493937,352.461688 82.1646443,389.490524 C40.8168355,439.971795 2.99278216,482.45382 8.842373,516.701646 C26.2369348,618.542259 296.150867,758 548.90982,758 C682.357164,758 840.109536,716.65271 928.069071,671.127651 C1003.84926,631.906233 1083.13166,590.917081 1079.99746,542.00009 C1074.81487,461.112733 912.219418,464.145084 912.219418,388.029995 C912.219418,310.080874 1063.84966,246.795036 1048.06933,159.914465 Z" id="Path" fill="url(#linearGradient-1)"></path>
        <rect id="Rectangle" fill="#555454" x="128" y="147" width="708" height="583" rx="21"></rect>
        <circle id="Oval" fill="#FD5D57" cx="169" cy="185" r="10"></circle>
        <circle id="Oval" fill="#FEBD08" cx="199" cy="185" r="10"></circle>
        <circle id="Oval" fill="#15CD34" cx="229" cy="185" r="10"></circle>
    </g>
</svg>