<?xml version="1.0" encoding="UTF-8"?>
<svg width="985px" height="420px" viewBox="0 0 985 420" version="1.1" xmlns="http://www.w3.org/2000/svg" xmlns:xlink="http://www.w3.org/1999/xlink">
    <style>
        #poac {
            fill: black;
        }
        @media (prefers-color-scheme: dark) {
            #poac {
                fill: whitesmoke;
            }
        }
    </style>

    <title>Group</title>
    <defs>
        <radialGradient cx="10.5172853%" cy="100%" fx="10.5172853%" fy="100%" r="119.945282%" gradientTransform="translate(0.105173,1.000000),scale(1.000000,0.952381),rotate(-51.739535),scale(1.000000,0.892357),translate(-0.105173,-1.000000)" id="radialGradient-1">
            <stop stop-color="#3023AE" offset="0%"></stop>
            <stop stop-color="#53A0FD" offset="79.8743881%"></stop>
            <stop stop-color="#51DEEC" offset="100%"></stop>
        </radialGradient>
    </defs>
    <g id="logo-copy" stroke="none" stroke-width="1" fill="none" fill-rule="evenodd">
        <g id="logo" transform="translate(-40.000000, -20.000000)">
            <g id="Group" transform="translate(40.000000, 20.000000)">
                <path d="M0,200 C0,0 183.916355,0 200,0 C216.083645,0 400,0 400,200 C400,360.602127 263.263237,400 200,400 C169.940075,400 130.053436,383.872837 110.053436,360 C83.687159,328.528108 81.6540229,287.441333 100,280 C120,271.887777 144.702055,320 200,320 C255.297945,320 320,270.651856 320,200 C320,129.348144 280,80 200,80 C120,80 79.9607444,129.348144 79.9607444,200 L79.9607444,380 C79.9607444,400.484491 52.5173973,420 40,420 C27.4826027,420 0,398.833096 0,380 L0,200 Z M200,260 C166.862915,260 140,233.137085 140,200 C140,166.862915 166.862915,140 200,140 C233.137085,140 260,166.862915 260,200 C260,233.137085 233.137085,260 200,260 Z" id="Shape" fill="url(#radialGradient-1)"></path>
                <path d="M518.52,397.05 C521.586667,397.05 524.116667,396.053333 526.11,394.06 C528.103333,392.066667 529.1,389.536667 529.1,386.47 L529.1,386.47 L529.1,327.82 C540.293333,339.473333 553.403333,345.3 568.43,345.3 C577.936667,345.3 586.945,342.885 595.455,338.055 C603.965,333.225 610.865,326.171667 616.155,316.895 C621.445,307.618333 624.09,296.77 624.09,284.35 C624.09,271.93 621.445,261.081667 616.155,251.805 C610.865,242.528333 603.965,235.475 595.455,230.645 C586.945,225.815 577.936667,223.4 568.43,223.4 C553.403333,223.4 540.293333,229.226667 529.1,240.88 L529.1,240.88 L529.1,234.9 C529.1,231.986667 528.065,229.533333 525.995,227.54 C523.925,225.546667 521.433333,224.55 518.52,224.55 C515.606667,224.55 513.153333,225.546667 511.16,227.54 C509.166667,229.533333 508.17,231.986667 508.17,234.9 L508.17,234.9 L508.17,386.47 C508.17,389.383333 509.166667,391.875 511.16,393.945 C513.153333,396.015 515.606667,397.05 518.52,397.05 Z M565.44,325.75 C558.386667,325.75 551.755,324.178333 545.545,321.035 C539.335,317.891667 533.853333,313.713333 529.1,308.5 L529.1,308.5 L529.1,260.2 C533.853333,254.986667 539.335,250.808333 545.545,247.665 C551.755,244.521667 558.386667,242.95 565.44,242.95 C576.786667,242.95 585.91,246.553333 592.81,253.76 C599.71,260.966667 603.16,271.163333 603.16,284.35 C603.16,297.536667 599.71,307.733333 592.81,314.94 C585.91,322.146667 576.786667,325.75 565.44,325.75 Z M693.55,345.3 C705.203333,345.3 715.476667,342.77 724.37,337.71 C733.263333,332.65 740.163333,325.481667 745.07,316.205 C749.976667,306.928333 752.43,296.31 752.43,284.35 C752.43,272.39 749.976667,261.771667 745.07,252.495 C740.163333,243.218333 733.263333,236.05 724.37,230.99 C715.476667,225.93 705.203333,223.4 693.55,223.4 C681.743333,223.4 671.393333,225.93 662.5,230.99 C653.606667,236.05 646.745,243.218333 641.915,252.495 C637.085,261.771667 634.67,272.39 634.67,284.35 C634.67,296.31 637.085,306.928333 641.915,316.205 C646.745,325.481667 653.606667,332.65 662.5,337.71 C671.393333,342.77 681.743333,345.3 693.55,345.3 Z M693.55,326.21 C687.11,326.21 681.015,324.753333 675.265,321.84 C669.515,318.926667 664.8,314.326667 661.12,308.04 C657.44,301.753333 655.6,293.78 655.6,284.12 C655.6,274.613333 657.44,266.716667 661.12,260.43 C664.8,254.143333 669.515,249.581667 675.265,246.745 C681.015,243.908333 687.11,242.49 693.55,242.49 C699.836667,242.49 705.855,243.908333 711.605,246.745 C717.355,249.581667 722.108333,254.143333 725.865,260.43 C729.621667,266.716667 731.5,274.613333 731.5,284.12 C731.5,293.78 729.621667,301.753333 725.865,308.04 C722.108333,314.326667 717.355,318.926667 711.605,321.84 C705.855,324.753333 699.836667,326.21 693.55,326.21 Z M800.04,345.3 C817.52,345.3 831.933333,339.473333 843.28,327.82 L843.28,327.82 L843.28,333.8 C843.28,336.713333 844.276667,339.166667 846.27,341.16 C848.263333,343.153333 850.716667,344.15 853.63,344.15 C856.543333,344.15 859.035,343.153333 861.105,341.16 C863.175,339.166667 864.21,336.713333 864.21,333.8 L864.21,333.8 L864.21,268.71 C864.21,260.736667 862.485,253.338333 859.035,246.515 C855.585,239.691667 850.218333,234.133333 842.935,229.84 C835.651667,225.546667 826.72,223.4 816.14,223.4 C802.646667,223.4 789.383333,226.16 776.35,231.68 C772.363333,233.366667 770.37,236.28 770.37,240.42 C770.37,242.873333 771.213333,244.943333 772.9,246.63 C774.586667,248.316667 776.58,249.16 778.88,249.16 C779.646667,249.16 780.643333,249.006667 781.87,248.7 C787.39,246.86 792.411667,245.48 796.935,244.56 C801.458333,243.64 806.633333,243.18 812.46,243.18 C823.04,243.18 830.821667,245.403333 835.805,249.85 C840.788333,254.296667 843.28,261.58 843.28,271.7 L843.28,271.7 L843.28,273.54 L815.45,273.54 C798.123333,273.54 784.975,276.913333 776.005,283.66 C767.035,290.406667 762.55,299.453333 762.55,310.8 C762.55,317.7 764.236667,323.795 767.61,329.085 C770.983333,334.375 775.545,338.4 781.295,341.16 C787.045,343.92 793.293333,345.3 800.04,345.3 Z M807.86,326.9 C799.12,326.9 792.871667,325.213333 789.115,321.84 C785.358333,318.466667 783.48,314.02 783.48,308.5 C783.48,296.386667 795.056667,290.33 818.21,290.33 L818.21,290.33 L843.28,290.33 L843.28,309.65 C838.986667,314.556667 833.696667,318.658333 827.41,321.955 C821.123333,325.251667 814.606667,326.9 807.86,326.9 Z M942.18,345.3 C950.306667,345.3 957.321667,344.265 963.225,342.195 C969.128333,340.125 974.61,337.48 979.67,334.26 C982.736667,332.266667 984.27,329.583333 984.27,326.21 C984.27,323.91 983.388333,321.801667 981.625,319.885 C979.861667,317.968333 977.83,317.01 975.53,317.01 C973.843333,317.01 972.156667,317.47 970.47,318.39 C965.41,320.996667 961.078333,322.875 957.475,324.025 C953.871667,325.175 949.386667,325.75 944.02,325.75 C930.833333,325.75 920.483333,321.955 912.97,314.365 C905.456667,306.775 901.7,296.77 901.7,284.35 C901.7,271.93 905.456667,261.925 912.97,254.335 C920.483333,246.745 930.833333,242.95 944.02,242.95 C949.386667,242.95 953.871667,243.525 957.475,244.675 C961.078333,245.825 965.41,247.703333 970.47,250.31 C972.156667,251.23 973.843333,251.69 975.53,251.69 C977.83,251.69 979.861667,250.731667 981.625,248.815 C983.388333,246.898333 984.27,244.79 984.27,242.49 C984.27,239.116667 982.736667,236.433333 979.67,234.44 C974.61,231.22 969.128333,228.575 963.225,226.505 C957.321667,224.435 950.306667,223.4 942.18,223.4 C931.14,223.4 920.943333,225.853333 911.59,230.76 C902.236667,235.666667 894.761667,242.72 889.165,251.92 C883.568333,261.12 880.77,271.93 880.77,284.35 C880.77,296.77 883.568333,307.58 889.165,316.78 C894.761667,325.98 902.236667,333.033333 911.59,337.94 C920.943333,342.846667 931.14,345.3 942.18,345.3 Z" id="poac" fill-rule="nonzero"></path>
            </g>
        </g>
    </g>
</svg>