<?xml version="1.0" encoding="UTF-8"?>
<svg width="400px" height="420px" viewBox="0 0 400 420" version="1.1" xmlns="http://www.w3.org/2000/svg" xmlns:xlink="http://www.w3.org/1999/xlink">
    <!-- Generator: Sketch 52 (66869) - http://www.bohemiancoding.com/sketch -->
    <title>Shape</title>
    <desc>Created with Sketch.</desc>
    <defs>
        <radialGradient cx="10.5172853%" cy="100%" fx="10.5172853%" fy="100%" r="119.945282%" gradientTransform="translate(0.105173,1.000000),scale(1.000000,0.952381),rotate(-51.739535),scale(1.000000,0.892357),translate(-0.105173,-1.000000)" id="radialGradient-1">
            <stop stop-color="#3023AE" offset="0%"></stop>
            <stop stop-color="#53A0FD" offset="79.8743881%"></stop>
            <stop stop-color="#51DEEC" offset="100%"></stop>
        </radialGradient>
    </defs>
    <g id="icon-gradient-new" stroke="none" stroke-width="1" fill="none" fill-rule="evenodd">
        <g id="icon" transform="translate(-20.000000, -20.000000)" fill="url(#radialGradient-1)">
            <path d="M20,220 C20,20 203.916355,20 220,20 C236.083645,20 420,20 420,220 C420,380.602127 283.263237,420 220,420 C189.940075,420 150.053436,403.872837 130.053436,380 C103.687159,348.528108 101.654023,307.441333 120,300 C140,291.887777 164.702055,340 220,340 C275.297945,340 340,290.651856 340,220 C340,149.348144 300,100 220,100 C140,100 99.9607444,149.348144 99.9607444,220 L99.9607444,400 C99.9607444,420.484491 72.5173973,440 60,440 C47.4826027,440 20,418.833096 20,400 L20,220 Z M220,280 C186.862915,280 160,253.137085 160,220 C160,186.862915 186.862915,160 220,160 C253.137085,160 280,186.862915 280,220 C280,253.137085 253.137085,280 220,280 Z" id="Shape"></path>
        </g>
    </g>
</svg>