<?xml version="1.0" encoding="UTF-8"?>
<svg width="963px" height="420px" viewBox="0 0 963 420" version="1.1" xmlns="http://www.w3.org/2000/svg" xmlns:xlink="http://www.w3.org/1999/xlink">
    <!-- Generator: Sketch 52 (66869) - http://www.bohemiancoding.com/sketch -->
    <title>Group</title>
    <desc>Created with Sketch.</desc>
    <defs>
        <radialGradient cx="10.5172853%" cy="100%" fx="10.5172853%" fy="100%" r="119.945282%" gradientTransform="translate(0.105173,1.000000),scale(1.000000,0.952381),rotate(-51.739535),scale(1.000000,0.892357),translate(-0.105173,-1.000000)" id="radialGradient-1">
            <stop stop-color="#3023AE" offset="0%"></stop>
            <stop stop-color="#53A0FD" offset="79.8743881%"></stop>
            <stop stop-color="#51DEEC" offset="100%"></stop>
        </radialGradient>
    </defs>
    <g id="logo" stroke="none" stroke-width="1" fill="none" fill-rule="evenodd">
        <g transform="translate(-40.000000, -20.000000)" id="Group">
            <g transform="translate(40.000000, 20.000000)">
                <path d="M0,200 C0,0 183.916355,3.55271368e-15 200,0 C216.083645,0 400,0 400,200 C400,360.602127 263.263237,400 200,400 C169.940075,400 130.053436,383.872837 110.053436,360 C83.687159,328.528108 81.6540229,287.441333 100,280 C120,271.887777 144.702055,320 200,320 C255.297945,320 320,270.651856 320,200 C320,129.348144 280,80 200,80 C120,80 79.9607444,129.348144 79.9607444,200 L79.9607444,380 C79.9607444,400.484491 52.5173973,420 40,420 C27.4826027,420 7.10542736e-15,398.833096 0,380 L0,200 Z M200,260 C166.862915,260 140,233.137085 140,200 C140,166.862915 166.862915,140 200,140 C233.137085,140 260,166.862915 260,200 C260,233.137085 233.137085,260 200,260 Z" id="Shape" fill="url(#radialGradient-1)"></path>
                <text id="poac" font-family="ArialRoundedMTBold, Arial Rounded MT Bold" font-size="251" font-weight="normal" letter-spacing="-12.55" fill="#000000">
                    <tspan x="406" y="367">poac</tspan>
                </text>
            </g>
        </g>
    </g>
</svg>